<svg width="16" height="16" xmlns="http://www.w3.org/2000/svg">
 <title>StateMachine</title>

 <g>
  <title>Layer 1</title>
  <rect rx="1" id="svg_12" height="9.75" width="11.5625" y="2.09375" x="2.21875" stroke="#ffffff" fill="#fff"/>
  <rect rx="1" stroke="#ffffff" stroke-width="0" id="svg_15" height="4.8125" width="9.5625" y="8.84375" x="3.21875" fill="#000000"/>
  <path transform="rotate(90 5.8852 12.3283)" id="svg_18" d="m5.2528,13.62383c-0.14905,-0.07205 -0.12949,-0.11568 0.23288,-0.51956c0.18298,-0.20394 0.33269,-0.37672 0.33269,-0.38397c0,-0.00724 -0.50528,-0.01317 -1.12284,-0.01317l-1.12284,0l0,-0.38195l0,-0.38195l1.13174,0c0.87264,0 1.122,-0.01151 1.0892,-0.05026c-0.0234,-0.02764 -0.18302,-0.21107 -0.35472,-0.40761c-0.32365,-0.37049 -0.32355,-0.46984 0.0005,-0.50064c0.16127,-0.01533 2.67198,1.16223 2.75828,1.29367c-0.8363,0.4693 -1.83596,0.96055 -2.75681,1.39368c-0.04855,0 -0.13319,-0.02171 -0.18809,-0.04825l0,0z" stroke-width="0" stroke="#ffffff" fill="#ffffff"/>
  <path transform="rotate(-90 9.8852 12.3283)" id="svg_19" d="m9.2528,13.62383c-0.14904,-0.07205 -0.12949,-0.11568 0.23289,-0.51955c0.18298,-0.20394 0.33269,-0.37673 0.33269,-0.38397c0,-0.00724 -0.50528,-0.01317 -1.12284,-0.01317l-1.12284,0l0,-0.38195l0,-0.38196l1.13174,0c0.87263,0 1.122,-0.0115 1.08919,-0.05026c-0.0234,-0.02764 -0.18302,-0.21106 -0.35471,-0.4076c-0.32365,-0.37049 -0.32355,-0.46985 0.0005,-0.50064c0.16126,-0.01533 2.67198,1.16223 2.75828,1.29367c-0.8363,0.4693 -1.83596,0.96054 -2.75681,1.39368c-0.04855,0 -0.13319,-0.02171 -0.18809,-0.04825l0,0z" stroke-width="0" stroke="#ffffff" fill="#ffffff"/>
  <text font-weight="bold" xml:space="preserve" text-anchor="start" font-family="'Roboto Slab'" font-size="4" stroke-width="0" id="svg_24" y="6.90625" x="3.71875" stroke="#ffffff" fill="#000000">FSM</text>
 </g>
</svg>